<svg xmlns="http://www.w3.org/2000/svg" width="82.51" height="62.345" viewBox="0 0 82.51 62.345">
  <path id="Icon_ionic-ios-person" data-name="Icon ionic-ios-person" d="M86.97,65.27c-1.547-5.163-10.379-7.68-13.43-8.491-3.352-.893-8.123-1.1-11.2-1.624-1.762-.292-4.319-1.023-5.179-1.8s-.344-8-.344-8a22.984,22.984,0,0,0,2.45-3.523,36.113,36.113,0,0,0,1.805-6.153s1.762,0,2.385-2.338c.666-2.549,1.719-3.539,1.59-5.439-.129-1.867-1.483-1.818-1.483-1.818s1.311-2.711,1.461-8.329C65.224,11.075,58.3,4.5,45.777,4.5c-12.7,0-19.468,6.575-19.275,13.248.172,5.618,1.44,8.329,1.44,8.329s-1.354-.049-1.483,1.818c-.129,1.9.924,2.89,1.59,5.439.6,2.338,2.385,2.338,2.385,2.338a36.113,36.113,0,0,0,1.8,6.153,22.985,22.985,0,0,0,2.45,3.523s.516,7.225-.344,8-3.417,1.51-5.179,1.8c-3.073.52-7.843.731-11.2,1.624-3.051.812-11.883,3.328-13.43,8.491-.236.812.58,1.575,1.7,1.575H85.294C86.39,66.845,87.206,66.082,86.97,65.27Z" transform="translate(-4.501 -4.5)" fill="#6c6c6c"/>
</svg>
