<svg xmlns="http://www.w3.org/2000/svg" width="41.203" height="36.618" viewBox="0 0 41.203 36.618">
  <path id="Icon_awesome-edit" data-name="Icon awesome-edit" d="M28.8,5.951,35.251,12.4a.7.7,0,0,1,0,.987L19.629,29.014l-6.638.737a1.391,1.391,0,0,1-1.538-1.538l.737-6.638L27.812,5.951A.7.7,0,0,1,28.8,5.951ZM40.387,4.313,36.9.823a2.8,2.8,0,0,0-3.949,0L30.416,3.355a.7.7,0,0,0,0,.987l6.452,6.452a.7.7,0,0,0,.987,0l2.532-2.532a2.8,2.8,0,0,0,0-3.949ZM27.469,24.765v7.282H4.578V9.156H21.016a.88.88,0,0,0,.608-.25l2.861-2.861a.858.858,0,0,0-.608-1.466H3.434A3.434,3.434,0,0,0,0,8.012v25.18a3.434,3.434,0,0,0,3.434,3.434h25.18a3.434,3.434,0,0,0,3.434-3.434V21.9A.86.86,0,0,0,30.58,21.3l-2.861,2.861A.88.88,0,0,0,27.469,24.765Z" transform="translate(0 -0.007)" fill="#95cd41"/>
</svg>

